<svg width="20" height="16" viewBox="0 0 20 16" fill="none" xmlns="http://www.w3.org/2000/svg">
<path d="M3.75 11H6.75V9.5H4.25V6.5H6.75V5H3.75C3.46667 5 3.22933 5.096 3.038 5.288C2.84667 5.48 2.75067 5.71733 2.75 6V10C2.75 10.2833 2.846 10.521 3.038 10.713C3.23 10.905 3.46733 11.0007 3.75 11ZM7.65 11H10.65C10.9333 11 11.171 10.904 11.363 10.712C11.555 10.52 11.6507 10.2827 11.65 10V8.5C11.65 8.21667 11.554 7.954 11.362 7.712C11.17 7.47 10.9327 7.34933 10.65 7.35H9.15V6.5H11.65V5H8.65C8.36667 5 8.12933 5.096 7.938 5.288C7.74667 5.48 7.65067 5.71733 7.65 6V7.5C7.65 7.78333 7.746 8.03767 7.938 8.263C8.13 8.48833 8.36733 8.60067 8.65 8.6H10.15V9.5H7.65V11ZM14.25 11H15.75L17.5 5H16L15 8.45L14 5H12.5L14.25 11ZM2 16C1.45 16 0.979333 15.8043 0.588 15.413C0.196667 15.0217 0.000666667 14.5507 0 14V2C0 1.45 0.196 0.979333 0.588 0.588C0.98 0.196666 1.45067 0.000666667 2 0H18C18.55 0 19.021 0.196 19.413 0.588C19.805 0.98 20.0007 1.45067 20 2V14C20 14.55 19.8043 15.021 19.413 15.413C19.0217 15.805 18.5507 16.0007 18 16H2Z" fill="#699BF7"/>
</svg>
