<svg width="24" height="22" viewBox="0 0 24 22" fill="none" xmlns="http://www.w3.org/2000/svg">
<path d="M14.8761 10.45L5.51001 8.80002V20.9923C5.5099 21.1248 5.53595 21.256 5.58666 21.3785C5.63737 21.5009 5.71175 21.6121 5.80553 21.7057C5.89931 21.7994 6.01065 21.8736 6.13317 21.9241C6.25568 21.9746 6.38696 22.0004 6.51948 22.0001H22.6811C22.8137 22.0006 22.9452 21.975 23.0679 21.9246C23.1906 21.8742 23.3022 21.8 23.3961 21.7064C23.4901 21.6127 23.5646 21.5014 23.6154 21.3789C23.6662 21.2563 23.6923 21.125 23.6922 20.9923V16.5L14.8761 10.45Z" fill="#185C37"/>
<path d="M14.8761 -5.78342e-05H6.51948C6.38696 -0.000391957 6.25568 0.0254345 6.13317 0.0759407C6.01065 0.126447 5.89931 0.200639 5.80553 0.294264C5.71175 0.387889 5.63737 0.499104 5.58666 0.621534C5.53595 0.743963 5.5099 0.875199 5.51001 1.00772V5.49996L14.8761 11L19.8355 12.65L23.6922 11V5.49996L14.8761 -5.78342e-05Z" fill="#21A366"/>
<path d="M5.51001 5.49994H14.8761V11H5.51001V5.49994Z" fill="#107C41"/>
<path opacity="0.1" d="M12.2133 4.3999H5.51001V18.15H12.2133C12.4804 18.1486 12.7362 18.0421 12.9253 17.8535C13.1144 17.6648 13.2216 17.4093 13.2236 17.1422V5.40768C13.2216 5.14058 13.1144 4.88502 12.9253 4.69639C12.7362 4.50775 12.4804 4.40123 12.2133 4.3999Z" fill="black"/>
<path opacity="0.2" d="M11.6624 4.94998H5.51001V18.7H11.6624C11.9295 18.6987 12.1853 18.5922 12.3745 18.4035C12.5636 18.2149 12.6707 17.9594 12.6727 17.6923V5.95775C12.6707 5.69066 12.5636 5.4351 12.3745 5.24647C12.1853 5.05783 11.9295 4.95131 11.6624 4.94998Z" fill="black"/>
<path opacity="0.2" d="M11.6624 4.94998H5.51001V17.6H11.6624C11.9295 17.5987 12.1853 17.4922 12.3745 17.3035C12.5636 17.1149 12.6707 16.8594 12.6727 16.5923V5.95775C12.6707 5.69066 12.5636 5.4351 12.3745 5.24647C12.1853 5.05783 11.9295 4.95131 11.6624 4.94998Z" fill="black"/>
<path opacity="0.2" d="M11.1116 4.94998H5.51001V17.6H11.1116C11.3787 17.5987 11.6345 17.4922 11.8236 17.3035C12.0127 17.1149 12.1199 16.8594 12.1219 16.5923V5.95775C12.1199 5.69066 12.0127 5.4351 11.8236 5.24647C11.6345 5.05783 11.3787 4.95131 11.1116 4.94998Z" fill="black"/>
<path d="M1.01031 4.94999H11.1117C11.3793 4.94976 11.636 5.05578 11.8255 5.24475C12.0149 5.43372 12.1216 5.69018 12.122 5.95776V16.0423C12.1216 16.3098 12.0149 16.5663 11.8255 16.7553C11.636 16.9442 11.3793 17.0503 11.1117 17.05H1.01031C0.877725 17.0505 0.746355 17.0247 0.623742 16.9743C0.50113 16.9238 0.38969 16.8496 0.295818 16.756C0.201946 16.6624 0.127492 16.5511 0.0767272 16.4286C0.0259627 16.3062 -0.000111807 16.1748 3.60358e-07 16.0423V5.95776C-0.000111807 5.82517 0.0259627 5.69387 0.0767272 5.57138C0.127492 5.4489 0.201946 5.33764 0.295818 5.24401C0.38969 5.15037 0.50113 5.0762 0.623742 5.02574C0.746355 4.97529 0.877725 4.94954 1.01031 4.94999Z" fill="url(#paint0_linear_246_15513)"/>
<path d="M3.13086 14.2772L5.25556 10.9907L3.3094 7.72284H4.87225L5.93418 9.81539C6.03233 10.0134 6.10341 10.1606 6.13556 10.2588H6.14995C6.21933 10.1003 6.29267 9.94626 6.36995 9.79677L7.50549 7.72622H8.94396L6.94787 10.9755L8.99473 14.2797H7.46403L6.2371 11.9858C6.1803 11.8871 6.13189 11.7838 6.09241 11.6769H6.0721C6.03624 11.781 5.98854 11.8807 5.92995 11.9739L4.66663 14.2772H3.13086Z" fill="white"/>
<path d="M22.682 -5.5345e-05H14.8762V5.49997H23.6923V1.00772C23.6924 0.87513 23.6664 0.743825 23.6156 0.62134C23.5648 0.498855 23.4904 0.387602 23.3965 0.293966C23.3026 0.20033 23.1912 0.126155 23.0686 0.0756991C22.946 0.0252429 22.8146 -0.000501067 22.682 -5.5345e-05Z" fill="#33C481"/>
<path d="M14.8762 10.9999H23.6923V16.4999H14.8762V10.9999Z" fill="#107C41"/>
<defs>
<linearGradient id="paint0_linear_246_15513" x1="2.11032" y1="4.15798" x2="10.0117" y2="17.842" gradientUnits="userSpaceOnUse">
<stop stop-color="#18884F"/>
<stop offset="0.5" stop-color="#117E43"/>
<stop offset="1" stop-color="#0B6631"/>
</linearGradient>
</defs>
</svg>
